PathFileType	4	(X/Y/Z)	Walk8.trc
DataRate	CameraRate	NumFrames	NumMarkers	Units	OrigDataRate	OrigDataStartFrame	OrigNumFrames
200.000000	200.000000	4	59	mm	200.000000	330	526
Frame#	Times		LFHD		RFHD		RBHD		C7		T10		CLAV		STRN		RBack		LASI		RASI		RPSI		RACR1		RUA1		RElbow		RFA1		RWRR		RWRU		RCAR		LACR1		LUA1		LFA1		LWRR		LCAR		RTH1		RTH3		RTH2		RTH4		RLFC		LTH1		LTH3		LTH2		LTH4		LLFC		LTB1		LTB3		LTB2		LTB4		LMMAL		LMT1		LMT5		LToe		LLMAL		RTB1		LPSI		LElbow		RTB2		RTB4		LBHD		RMT1		RToe		RTB3		RElbowM		LCAL		LElbowM		LWRU		RLMAL		RCAL		RMT5		RMMAL
			X1	Y1	Z1	X2	Y2	Z2	X3	Y3	Z3	X4	Y4	Z4	X5	Y5	Z5	X6	Y6	Z6	X7	Y7	Z7	X8	Y8	Z8	X9	Y9	Z9	X10	Y10	Z10	X11	Y11	Z11	X12	Y12	Z12	X13	Y13	Z13	X14	Y14	Z14	X15	Y15	Z15	X16	Y16	Z16	X17	Y17	Z17	X18	Y18	Z18	X19	Y19	Z19	X20	Y20	Z20	X21	Y21	Z21	X22	Y22	Z22	X23	Y23	Z23	X24	Y24	Z24	X25	Y25	Z25	X26	Y26	Z26	X27	Y27	Z27	X28	Y28	Z28	X29	Y29	Z29	X30	Y30	Z30	X31	Y31	Z31	X32	Y32	Z32	X33	Y33	Z33	X34	Y34	Z34	X35	Y35	Z35	X36	Y36	Z36	X37	Y37	Z37	X38	Y38	Z38	X39	Y39	Z39	X40	Y40	Z40	X41	Y41	Z41	X42	Y42	Z42	X43	Y43	Z43	X44	Y44	Z44	X45	Y45	Z45	X46	Y46	Z46	X47	Y47	Z47	X48	Y48	Z48	X49	Y49	Z49	X50	Y50	Z50	X51	Y51	Z51	X52	Y52	Z52	X53	Y53	Z53	X54	Y54	Z54	X55	Y55	Z55	X56	Y56	Z56	X57	Y57	Z57	X58	Y58	Z58	X59	Y59	Z59

330	1.65	77.948	1573.1	-42.775	86.434	1575.4	30.12	-79.924	1523.3	71.297	-75.712	1397.5	-6.9171	-99.473	1113.9	-11.194	52.539	1325.8	-15.75	137.41	1101.6	-23.264	-114.04	1286.9	83.099	65.85	917.48	-152.38	101.81	930.48	113.82	-119.52	963.15	68.046	1.6011	1325.9	159.07	-38.793	1114.7	212.33	-71.737	1011.6	229.57	-33.921	865.07	242.15	-29.806	756.84	206.64	-81.051	762.21	260.31	-43.333	713.21	257.26	-11.265	1343.7	-183.21	0.23708	1139	-239.53	107.63	924.97	-263.12	173.92	833.17	-221.1	191.91	792.94	-262.47	48.068	746.09	170.81	109.22	569.88	134.82	134.76	687.61	116.79	78.786	657.87	152.36	136.64	470.3	124.73	-47.296	708.68	-171.87	-59.688	524.67	-143.77	15.891	610.75	-128.16	-54.829	612.7	-158.78	-92.221	421.75	-131.97	-132.43	322.03	-59.782	-271.31	196.15	-72.759	-212.64	275.8	-139.17	-201.9	256.75	-70.43	-356.29	140.05	-45.339	-276.81	38.292	-68.469	-316.55	32.022	-144.01	-237.14	26.634	-97.374	-373.1	138.04	-127.13	183.73	353.98	48.816	-134.28	953.56	-45.853	8.0886	1018.9	-259.22	179.81	263.46	118.47	189.62	261.19	48.548	-89.839	1530.4	-55.412	329.61	43.354	52.516	368.94	37.655	81.131	196.74	169.3	47.375	-86.805	993.44	146.12	-431.3	144.69	-76.072	-11.319	997.62	-193.85	129.17	804.9	-269.56	169.95	57.611	96.524	128.61	22.982	47.84	285.97	21.231	131.4	188.24	76.949	18.596
331	1.655	83.951	1573.5	-41.643	92.45	1575.9	31.25	-73.741	1523.3	72.477	-69.197	1397.7	-5.7021	-93.311	1114.2	-10.192	59.036	1326	-14.603	144.12	1101.9	-22.081	-107.36	1287.1	84.368	72.652	917.3	-150.44	108.38	930.61	114.49	-113.34	963.64	68.895	8.308	1326	160.22	-31.534	1114.7	213.36	-64.324	1011.6	230.56	-26.133	865.1	242.89	-21.763	756.94	207.24	-72.968	762.11	260.98	-35.112	713.22	257.82	-4.7079	1343.9	-182.03	6.0583	1139.1	-238.28	112.57	924.69	-262.3	178.77	832.7	-220.57	196.37	792.38	-262.02	54.647	746.7	171.52	115.92	570.66	135.08	141.16	688.43	116.98	85.383	658.56	152.75	143.04	470.69	124.9	-39.474	708.37	-170.79	-50.275	524.2	-143.21	24.405	610.93	-127.04	-46.202	612.26	-157.97	-82.292	421.64	-131.64	-123.67	322.27	-60.002	-264.62	198.83	-73.757	-204.73	277.99	-139.65	-194.25	258.26	-71.021	-350.6	144.31	-46.524	-275.66	38.886	-68.724	-314.87	34.013	-144.11	-237.01	26.466	-97.284	-367.44	142.73	-128.29	188.37	353.8	48.646	-128.19	953.52	-45.093	13.354	1018.9	-258.03	183.82	263.27	118.34	192.99	260.93	48.266	-83.715	1530.4	-54.228	330.22	41.797	51.736	369.96	35.596	80.331	198.8	168.95	46.977	-79.384	993.48	147.09	-425.09	151.44	-77.44	-5.8041	997.8	-192.5	133.64	804.53	-268.77	170.69	57.691	96.222	128.7	23.319	47.936	286.2	20.811	131.68	188.82	76.603	18.24
332	1.66	89.965	1574	-40.521	98.472	1576.4	32.37	-67.559	1523.3	73.633	-62.699	1398	-4.5081	-87.21	1114.5	-9.2103	65.504	1326.3	-13.482	150.78	1102.3	-20.899	-100.69	1287.3	85.642	79.463	917.17	-148.48	114.88	930.79	115.16	-107.22	964.12	69.705	15.02	1326.2	161.34	-24.239	1114.9	214.38	-56.882	1011.6	231.55	-18.272	865.19	243.62	-13.623	757.1	207.83	-64.787	762.07	261.63	-26.783	713.29	258.36	1.8332	1344.1	-180.86	11.824	1139.3	-237.06	117.41	924.44	-261.47	183.46	832.22	-220.03	200.68	791.8	-261.56	60.985	747.2	172.29	122.46	571.37	135.38	147.4	689.19	117.34	91.786	659.16	153.2	149.32	471.05	125.08	-31.585	708.11	-169.72	-40.654	523.78	-142.67	33.053	611.21	-125.93	-37.436	611.87	-157.17	-72.081	421.57	-131.34	-114.59	322.58	-60.216	-257.57	201.57	-74.698	-196.48	280.25	-140.1	-186.26	259.83	-71.588	-344.53	148.65	-47.629	-274.26	39.621	-68.993	-312.88	36.251	-144.2	-236.73	26.308	-97.214	-361.38	147.5	-129.38	192.9	353.62	48.492	-122.14	953.51	-44.363	18.564	1019.1	-256.85	187.68	263.08	118.22	196.25	260.7	48	-77.582	1530.3	-53.067	330.72	40.547	51.057	370.84	33.918	79.679	200.73	168.63	46.598	-71.937	993.59	148.07	-418.43	158.27	-78.744	-0.35734	998.04	-191.17	137.99	804.19	-268	171.33	57.8	95.936	128.77	23.609	48.02	286.37	20.537	131.93	189.3	76.317	17.904
333	1.665	95.99	1574.5	-39.414	104.5	1576.9	33.474	-61.379	1523.4	74.764	-56.227	1398.2	-3.3358	-81.165	1114.9	-8.2466	71.938	1326.6	-12.388	157.38	1102.6	-19.721	-94.048	1287.6	86.919	86.276	917.09	-146.5	121.33	931.01	115.82	-101.17	964.6	70.481	21.731	1326.5	162.43	-16.911	1115	215.39	-49.412	1011.7	232.55	-10.339	865.35	244.34	-5.388	757.34	208.4	-56.507	762.08	262.28	-18.348	713.42	258.89	8.3484	1344.4	-179.7	17.537	1139.5	-235.86	122.18	924.22	-260.64	188.01	831.72	-219.48	204.84	791.21	-261.08	67.09	747.59	173.12	128.83	571.99	135.71	153.51	689.88	117.87	97.99	659.65	153.72	155.48	471.38	125.26	-23.645	707.89	-168.68	-30.858	523.41	-142.16	41.811	611.58	-124.84	-28.554	611.53	-156.4	-61.623	421.56	-131.06	-105.22	322.95	-60.416	-250.17	204.37	-75.564	-187.91	282.55	-140.51	-177.94	261.46	-72.118	-338.08	153.04	-48.636	-272.58	40.506	-69.276	-310.54	38.737	-144.28	-236.27	26.169	-97.167	-354.93	152.33	-130.37	197.31	353.43	48.362	-116.14	953.52	-43.656	23.717	1019.2	-255.69	191.36	262.89	118.11	199.4	260.46	47.761	-71.441	1530.4	-51.931	331.11	39.571	50.477	371.59	32.582	79.173	202.54	168.35	46.245	-64.472	993.77	149.05	-411.34	165.12	-79.962	5.0237	998.34	-189.86	142.2	803.87	-267.26	171.88	57.928	95.673	128.82	23.853	48.092	286.47	20.383	132.14	189.7	76.085	17.592
